<?xml version="1.0" standalone="no"?><!DOCTYPE svg PUBLIC "-//W3C//DTD SVG 1.1//EN" "http://www.w3.org/Graphics/SVG/1.1/DTD/svg11.dtd"><svg t="1602990814151" class="icon" viewBox="0 0 1024 1024" version="1.1" xmlns="http://www.w3.org/2000/svg" p-id="10768" xmlns:xlink="http://www.w3.org/1999/xlink" width="200" height="200"><defs><style type="text/css"></style></defs><path d="M246.276105 483.320533s-17.407731 17.407731-37.887414 17.407731-37.887415-17.407731-37.887415-17.407731c0-63.487019 18.943707-139.77384 25.599605-165.373445-6.143905-4.095937-10.239842-10.751834-10.239842-18.431716 0-10.239842 7.167889-18.943707 16.895739-21.503667V235.516361l11.263826 6.655897v35.327455c9.72785 2.55996 16.895739 11.263826 16.895739 21.503667 0 7.679881-4.095937 14.847771-10.239842 18.431716 4.607929 16.383747 13.823786 53.759169 19.967691 95.230528 3.071953 23.039644 5.631913 47.615264 5.631913 70.654909z m495.096351-14.335779c-1.023984-13.311794-9.215858-27.135581-26.111596-27.135581-1.023984 0-1.535976-0.511992-3.071953-1.023984l-1.535976-3.583944s1.023984-11.263826 1.535976-17.407731c1.023984-19.967691 2.55996-39.935383 3.583945-59.903075 0.511992-8.191873 1.535976-16.895739 2.047968-25.087612l-50.687217-13.311795c-2.047968-1.023984-23.551636-4.095937-23.551636-4.095936-11.263826-1.535976-81.406742-8.191873-147.965714-8.703866-52.735185-0.511992-102.91041 5.119921-116.222204 7.167889-4.095937 0.511992-12.799802 2.55996-13.311795 2.559961 0 0-38.399407 8.191873-53.247177 13.823786l-13.823786 5.119921c0.511992 18.943707 2.047968 38.399407 3.071952 57.343114 0.511992 15.359763 2.047968 31.231517 3.583945 46.59128-1.535976 0.511992-2.55996 1.023984-3.071953 1.023985-17.407731 0-25.087612 13.823786-26.111596 27.13558-0.511992 8.703866-1.023984 17.407731 0 26.111597 2.55996 25.087612 10.751834 48.127256 26.111596 68.60694 8.703866 11.263826 15.359763 12.799802 27.647573 8.191873 4.095937 1.023984 13.311794 21.503668 14.847771 25.599605 17.407731 37.375423 45.055304 83.454711 97.278497 102.91041 35.839446 13.311794 75.774829 17.407731 112.63826 7.167889 39.423391-11.263826 70.654908-39.423391 94.718536-71.678892 22.01566-29.695541 29.695541-48.639249 33.279486-56.31913 1.535976-3.583945 1.535976-6.655897 5.119921-7.16789 2.55996-0.511992 6.655897 2.047968 9.72785 1.535977 6.655897-0.511992 11.775818-5.631913 15.871754-10.751834 15.359763-19.967691 23.551636-43.519328 26.111597-68.60694 2.047968-8.703866 2.047968-17.407731 1.535976-26.111597z m-59.391082-53.759169c-2.047968 37.887415-7.679881 88.574632-13.823787 114.686228-7.167889 31.231517-59.391082 156.157587-163.837468 153.597627-16.895739-0.511992-33.279486-4.095937-48.127257-10.239842-52.735185-17.407731-81.406742-66.04698-103.422402-134.65392-10.239842-29.183549-14.847771-62.463035-14.847771-100.862441 0-7.679881-0.511992-15.871755-1.535976-23.551636 7.679881 12.799802 13.823786 12.799802 20.479684 12.799802 43.007336 0 80.89475-3.071953 115.19822-8.703866 11.775818-2.047968 26.111597-4.607929 40.447375-8.191873 43.007336-10.751834 76.286821-26.111597 104.958378-49.151241 14.847771 17.407731 34.815462 30.719525 62.975028 41.983352 1.023984 0.511992 1.535976 0.511992 2.55996 1.023984l-1.023984 11.263826z" p-id="10769" fill="#409EFF"></path><path d="M712.700899 248.316164v-0.511993c-0.511992-13.823786 0.511992-7.167889-3.071952-20.479683-1.535976-7.167889-3.583945-11.775818-9.72785-15.359763-7.167889-4.607929-13.823786-9.215858-21.503668-13.311794-18.943707-9.72785-38.399407-15.871755-59.391082-20.479684-45.055304-9.215858-90.6226-11.263826-136.189896-9.727849-18.943707 0.511992-37.887415 2.047968-56.831122 4.607928-31.74351 4.607929-62.975027 12.28781-91.646584 28.671557-10.751834 6.143905-18.431715 9.72785-21.503668 22.01566-7.167889 29.183549-6.655897 54.783154-7.679881 84.478695v2.55996c17.407731-6.655897 37.375423-11.263826 56.31913-14.84777 12.28781-3.071953 26.623589-5.119921 41.471359-5.631913 10.751834-3.071953 47.103272-4.607929 83.966703-4.607929 34.30347 0.511992 68.094948-0.511992 102.398418 1.535976 25.087612 1.535976 50.175225 5.631913 74.750845 9.215858 5.631913 1.023984 11.263826 1.535976 16.895739 4.095937l33.279485 8.703865v-0.511992c-1.023984-13.823786-1.023984-46.079288-1.535976-60.415066z" p-id="10770" fill="#409EFF"></path><path d="M858.106653 194.556994c-39.935383 23.039644-124.92607 71.678893-124.92607 71.678893s-0.511992-7.679881-0.511992-10.239842c0-10.239842-0.511992-22.527652-3.583945-34.815462-2.55996-10.239842-6.655897-20.479684-18.943707-28.671557 0 0-16.383747-10.751834-24.063628-14.335779-19.455699-9.72785-40.959367-16.895739-65.022996-22.01566-35.327454-7.167889-71.678893-10.751834-112.126268-10.751834-9.72785 0-71.1669 3.071953-88.574631 5.631913-40.447375 6.143905-72.190885 15.871755-100.35045 31.74351-11.263826 6.143905-26.111597 14.335779-31.231517 35.839446-3.583945 13.311794-5.119921 29.695541-6.143905 46.079288 0 0-104.958378-60.415067-123.390094-71.1669 8.191873-5.119921 14.335779-9.215858 20.479684-12.799802C285.187504 122.878102 389.633891 63.999011 494.080277 4.607929c11.263826-6.143905 19.455699-6.143905 31.231517 0C630.782165 65.022995 737.276519 124.92607 843.258882 184.317152c4.607929 2.55996 8.703866 6.143905 14.847771 10.239842z m-12.799803 625.142342c-52.735185-34.815462-180.733208-79.358774-182.781176-79.870766-0.511992 1.023984-31.231517 65.022995-44.031319 91.134592-8.703866 17.919723-23.551636 18.943707-34.815462 3.071952-9.215858-13.311794-32.767494-48.127256-35.327455-51.711201-7.167889-10.239842-14.847771-11.263826-23.551636-2.047968-1.535976 1.535976-12.799802 11.775818-16.383747 11.775818-3.583945 0-15.359763-10.239842-16.383746-11.775818-8.703866-9.215858-14.847771-9.72785-23.551637 2.047968-8.703866 11.775818-25.087612 35.327454-33.791478 46.59128-18.431715 23.551636-36.351438 19.455699-44.543311 0-12.799802-30.207533-34.815462-87.550647-35.839447-88.574631-2.047968 0.511992-130.045991 45.055304-182.781176 79.870766C51.207119 895.474165 54.791064 1023.984179 54.791064 1023.984179h919.537793c0 1.535976 14.847771-109.054315-129.022007-204.284843z" p-id="10771" fill="#409EFF"></path></svg>