<?xml version="1.0" standalone="no"?><!DOCTYPE svg PUBLIC "-//W3C//DTD SVG 1.1//EN" "http://www.w3.org/Graphics/SVG/1.1/DTD/svg11.dtd"><svg t="1603003660672" class="icon" viewBox="0 0 1024 1024" version="1.1" xmlns="http://www.w3.org/2000/svg" p-id="12310" xmlns:xlink="http://www.w3.org/1999/xlink" width="200" height="200"><defs><style type="text/css"></style></defs><path d="M380.48256 764.586667h549.495467c20.821333 0 37.701973 19.10272 37.701973 42.666666s-16.878933 42.666667-37.700267 42.666667H370.500267c-5.121707 0-10.006187-1.155413-14.45888-3.2512 15.377067-21.307733 24.439467-47.42144 24.439466-75.651413V764.586667z m0-49.493334v-71.68H846.506667V244.053333H291.05152c-26.036907-23.338667-60.4928-37.546667-98.193067-37.546666-5.758293 0-11.43808 0.329387-17.024 0.971093C187.4944 186.53696 209.85344 172.373333 235.52 172.373333h614.4c37.701973 0 68.266667 30.564693 68.266667 68.266667v406.186667c0 37.701973-30.564693 68.266667-68.266667 68.266666H380.48256z m70.97856-179.698346c-6.882987 12.520107-12.65152 14.056107-16.815787 15.348053-0.529067 0.16384-1.05984 0.3072-1.595733 0.433493l-86.40512 20.3264a22.5024 22.5024 0 0 0-17.36192 21.89312v177.621334c0 43.501227-35.7632 78.902613-79.807147 78.902613H137.833813c-2.67264 0-18.23232-1.385813-22.734506-3.5072a17.179307 17.179307 0 0 0-2.077014-0.8192C81.175893 835.26656 58.026667 806.002347 58.026667 771.01568V573.842773c0-43.501227 35.7632-78.912853 79.807146-78.912853h21.497174c14.359893-0.12288 16.843093 0 27.65312 0 4.29568 0 7.49568 0.075093 12.21632 0h50.425173l15.7952 0.264533c3.464533 0.128 6.935893 0.023893 10.386773-0.310613l120.261974-17.36704a22.53312 22.53312 0 0 0 14.953813-8.9088l83.602773-113.984853c11.328853-15.394133 31.957333-19.684693 46.260907-9.361067l6.36416 4.601173c14.301867 10.1632 16.728747 30.952107 5.399893 46.35648l-92.050773 125.392214c-1.28512 1.706667-7.855787 12.076373-9.1392 13.78304zM192.858453 447.146667C139.98592 447.146667 97.28 404.657493 97.28 352.413013 97.28 300.166827 139.987627 257.706667 192.858453 257.706667 245.521067 257.706667 288.426667 300.214613 288.426667 352.45056 288.426667 404.6848 245.72928 447.146667 192.858453 447.146667zM636.586667 563.2h107.52c15.081813 0 27.306667 12.224853 27.306666 27.306667s-12.224853 27.306667-27.306666 27.306666h-107.52c-15.081813 0-27.306667-12.224853-27.306667-27.306666s12.224853-27.306667 27.306667-27.306667z" p-id="12311" fill="#E6A23C"></path></svg>