<?xml version="1.0" standalone="no"?><!DOCTYPE svg PUBLIC "-//W3C//DTD SVG 1.1//EN" "http://www.w3.org/Graphics/SVG/1.1/DTD/svg11.dtd"><svg t="1602948236893" class="icon" viewBox="0 0 1024 1024" version="1.1" xmlns="http://www.w3.org/2000/svg" p-id="3304" xmlns:xlink="http://www.w3.org/1999/xlink" width="200" height="200"><defs><style type="text/css"></style></defs><path d="M512 73.142857v292.571429l109.714286-58.514286L731.428571 365.714286V73.142857h73.142858a73.142857 73.142857 0 0 1 73.142857 73.142857v731.428572a73.142857 73.142857 0 0 1-73.142857 73.142857H219.428571a73.142857 73.142857 0 0 1-73.142857-73.142857V146.285714a73.142857 73.142857 0 0 1 73.142857-73.142857h292.571429zM329.142857 658.285714a36.571429 36.571429 0 0 0 0 73.142857h365.714286a36.571429 36.571429 0 0 0 0-73.142857h-365.714286z" p-id="3305" fill="#46a0fc"></path></svg>