<?xml version="1.0" standalone="no"?><!DOCTYPE svg PUBLIC "-//W3C//DTD SVG 1.1//EN" "http://www.w3.org/Graphics/SVG/1.1/DTD/svg11.dtd"><svg t="1602987769939" class="icon" viewBox="0 0 1024 1024" version="1.1" xmlns="http://www.w3.org/2000/svg" p-id="6457" xmlns:xlink="http://www.w3.org/1999/xlink" width="200" height="200"><defs><style type="text/css"></style></defs><path d="M779.7 735.1c14.8-2.3 25-16.3 22.7-31.1l-7.1-45.6c-2-12.5-12.3-21.8-24.4-22.9-1.2-43-2.2-81-2.2-81s-8.3-3.3-32.5-3.3c-15.9 0-31.1 1.4-62.8 6.2-13.1 1.7-25 4.5-35.8 7.4-63.6 15.3-97.1 41.5-97.1 41.5h-56.8s-33.5-26.1-97.1-41.5c-10.8-2.8-22.7-5.7-35.8-7.4-31.5-4.7-46.6-6.2-62.4-6.2-24.1 0-32.4 3.3-32.4 3.3s-1.3 38-2.7 81c-12.2 1.1-22.6 10.3-24.5 22.9l-7.1 45.6c-2.3 14.8 7.9 28.8 22.7 31.1 1.9 0.3 3.8 0.4 5.6 0.3-4.2 85.8-12.1 102.8-12.1 102.8s23.8 0.6 99.3 15.3c2.3 0.6 4 0.6 6.3 1.1 84.1 17 140.3 57.4 140.3 57.4h56.8s14.2-10.2 38.6-22.2c25-12.5 60.2-26.7 101.7-35.2 2.3-0.6 4-0.6 6.3-1.1 75.5-14.8 99.9-15.3 99.9-15.3s-7.9-17-12.5-102.8c1.5 0.1 3.3 0 5.1-0.3z m-99.9 81.8l-0.9 0.2-0.2 0.1h-0.1c-1.3 0.2-3.4 0.5-5.9 1.1-47.4 9.8-86 26.2-110.1 38.2-14.5 7.1-25.7 13.6-33.2 18.3h-34.6c-21.4-13.3-73.6-42.2-143.4-56.5-2.5-0.6-4.6-0.9-5.9-1.1h-0.1l-0.2-0.1-0.9-0.2c-30.2-5.9-46.2-9.6-63.7-12 3.1-26.5 6.5-49.9 8.2-106.7 1-35.6 2.5-80 3.4-109.6 16.6 0.3 29.5 2.2 53.1 5.7l0.4 0.1h0.4c11.4 1.5 22.1 4.1 31.1 6.5l0.4 0.1 0.4 0.1c52.1 12.6 81 33.2 83.1 34.7l9.7 7.8H540.7l12.7 0.4 10.1-8.1c2.1-1.5 30.9-22.1 83.1-34.7l0.4-0.1 0.4-0.1c9-2.4 19.7-5 31.1-6.5h0.6c23.7-3.5 36.7-5.5 53.5-5.7 0.8 29.7 2 74 3.1 109.6v0.2c2 56.7 5.5 80 8.7 106.5-18.1 2.1-34.2 5.9-64.6 11.8z" p-id="6458" fill="#E6A23C"></path><path d="M356.7 514.8c15.5 2.1 29.1 5.3 40.3 8.3 48.9 11.8 82.4 29.4 99.7 40.2h30.6c17.3-10.7 50.8-28.3 99.7-40.2 11.3-3 24.8-6.2 40.3-8.3 17.7-2.6 34-4.5 48.8-5.5-27.7-21.6-58.9-38.9-92.6-50.9 48.4-34.6 79.6-91.1 79.6-155.2C703.1 197.6 617.5 112 512 112s-191.1 85.6-191.1 191.2c0 64 31.2 120.6 79.6 155.2-33.7 12-64.9 29.3-92.6 50.9 14.8 1 31.1 2.8 48.8 5.5z" p-id="6459" fill="#E6A23C"></path></svg>