<?xml version="1.0" standalone="no"?><!DOCTYPE svg PUBLIC "-//W3C//DTD SVG 1.1//EN" "http://www.w3.org/Graphics/SVG/1.1/DTD/svg11.dtd"><svg t="1603004667130" class="icon" viewBox="0 0 1024 1024" version="1.1" xmlns="http://www.w3.org/2000/svg" p-id="17490" xmlns:xlink="http://www.w3.org/1999/xlink" width="200" height="200"><defs><style type="text/css"></style></defs><path d="M228.396827 552.427758l136.51621-69.091588c0 0 122.44882 145.778154 141.398404 358.491791l-104.565521 45.064358C401.746944 886.891296 262.036995 725.995839 228.396827 552.427758L228.396827 552.427758zM423.562808 899.748115l89.284489-34.016745-17.004279 76.526931L423.562808 899.748115zM123.855866 82.71998l-3.015683-0.01228c-5.339612 0.638543-10.704806 1.692548-16.138562 3.671623-113.157199 41.001833 55.43045 386.470005 116.76947 447.874517l136.158053-68.719104c0 0-65.850777-261.491573-163.219385-352.453261C163.350368 84.065628 123.855866 82.71998 123.855866 82.71998zM699.286524 266.74318l260.238023 0 0 63.739696L699.286524 330.482877 699.286524 266.74318 699.286524 266.74318zM575.241346 568.763818l382.437156 0 0 61.092403L575.241346 629.856221 575.241346 568.763818 575.241346 568.763818zM572.636009 651.954519M490.14218 880.952027l469.38339 0 0 56.796564L490.14218 937.74859 490.14218 880.952027 490.14218 880.952027z" p-id="17491" fill="#F56C6C"></path></svg>