<?xml version="1.0" standalone="no"?><!DOCTYPE svg PUBLIC "-//W3C//DTD SVG 1.1//EN" "http://www.w3.org/Graphics/SVG/1.1/DTD/svg11.dtd"><svg t="1603004755390" class="icon" viewBox="0 0 1024 1024" version="1.1" xmlns="http://www.w3.org/2000/svg" p-id="18362" xmlns:xlink="http://www.w3.org/1999/xlink" width="200" height="200"><defs><style type="text/css"></style></defs><path d="M979.316364 719.220364c49.058909 44.311273 64.232727 154.158545 6.516363 223.790545-88.994909 107.147636-359.330909 126.510545-593.92-66.653091-188.043636-154.530909-250.600727-379.345455-114.688-542.999273C494.498909 71.68 688.128 266.24 688.128 266.24c105.472 113.570909 2.327273 206.941091 95.604364 332.706909 71.866182 96.814545 109.474909 42.449455 195.584 120.180364zM64.884364 512a63.860364 63.860364 0 1 1 0 127.720727 63.860364 63.860364 0 0 1 0-127.720727z m0-191.581091a63.860364 63.860364 0 1 1 0 127.720727 63.860364 63.860364 0 0 1 0-127.720727z m221.556363-112.826182a78.848 78.848 0 1 1-157.602909 0 78.848 78.848 0 0 1 157.602909 0z m129.768728-14.894545a95.883636 95.883636 0 1 1 0-191.767273 95.883636 95.883636 0 0 1 0 191.767273z" fill="#E6A23C" p-id="18363"></path></svg>