<?xml version="1.0" standalone="no"?><!DOCTYPE svg PUBLIC "-//W3C//DTD SVG 1.1//EN" "http://www.w3.org/Graphics/SVG/1.1/DTD/svg11.dtd"><svg t="1603005378631" class="icon" viewBox="0 0 1024 1024" version="1.1" xmlns="http://www.w3.org/2000/svg" p-id="20596" xmlns:xlink="http://www.w3.org/1999/xlink" width="200" height="200"><defs><style type="text/css"></style></defs><path d="M300.8 150.4L240 89.6C136 166.4 68.8 288 62.4 425.6h86.4c6.4-113.6 64-212.8 152-275.2z m576 275.2h86.4C955.2 288 888 166.4 784 88l-60.8 60.8c88 64 145.6 163.2 153.6 276.8zM792 448c0-131.2-91.2-241.6-214.4-272V147.2c0-35.2-28.8-64-64-64s-64 28.8-64 64V176c-123.2 28.8-214.4 139.2-214.4 272v236.8l-86.4 86.4v43.2H880v-43.2l-86.4-86.4V448zM512 942.4c6.4 0 11.2 0 17.6-1.6 27.2-4.8 51.2-25.6 62.4-51.2 4.8-9.6 6.4-20.8 6.4-33.6H425.6c0 46.4 38.4 86.4 86.4 86.4z m0 0" p-id="20597" fill="#409EFF"></path></svg>