<?xml version="1.0" standalone="no"?><!DOCTYPE svg PUBLIC "-//W3C//DTD SVG 1.1//EN" "http://www.w3.org/Graphics/SVG/1.1/DTD/svg11.dtd"><svg t="1595653532290" class="icon" viewBox="0 0 1024 1024" version="1.1" xmlns="http://www.w3.org/2000/svg" p-id="7012" xmlns:xlink="http://www.w3.org/1999/xlink" width="600" height="600"><defs><style type="text/css"></style></defs><path d="M800 279.04h119.04v558.08h-183.68V503.04c-16.64 5.76-33.28 10.88-49.28 12.8l14.72-47.36c9.6-2.56 19.84-5.76 30.08-10.24 19.84-8.32 36.48-17.28 48-28.16v363.52h97.28V321.92h-61.44c-24.96 19.2-53.12 35.2-83.84 48l5.76-17.92H652.8l8.32-2.56c49.92-14.08 91.52-35.2 126.72-62.08l12.16-8.32zM555.52 352h181.12l-5.76 17.92-30.08 98.56-14.72 47.36-83.84 271.36H442.88l-89.6-305.28-38.4-129.92h181.76l8.96 33.28 20.48 88.32 29.44-121.6zM353.28 192v160h-38.4l38.4 129.92v268.16H169.6V414.72c-20.48 7.04-39.04 13.44-57.6 15.36L64 435.84V271.36l30.72-8.96c49.92-14.08 92.16-35.2 127.36-62.08L233.6 192h119.68z m-43.52 514.56V234.88h-61.44c-39.68 30.72-86.4 53.76-140.8 69.76v81.92c17.28-1.92 35.84-7.04 56.96-14.72 20.48-8.32 36.48-17.92 48.64-28.16v362.88h96.64z m364.16-296.96l3.84-14.08H590.08l-53.76 221.44c-5.12 21.76-8.96 40.96-10.24 57.6H524.8c-0.64-16-3.84-35.84-9.6-59.52l-52.48-219.52h-89.6l102.4 348.16h94.72l68.48-222.08 35.2-112z" p-id="7013" fill="#1296db"></path></svg>