<?xml version="1.0" standalone="no"?><!DOCTYPE svg PUBLIC "-//W3C//DTD SVG 1.1//EN" "http://www.w3.org/Graphics/SVG/1.1/DTD/svg11.dtd"><svg t="1595653976520" class="icon" viewBox="0 0 1024 1024" version="1.1" xmlns="http://www.w3.org/2000/svg" p-id="11485" xmlns:xlink="http://www.w3.org/1999/xlink" width="600" height="600"><defs><style type="text/css"></style></defs><path d="M919.14 649.03c0 7.68-2.56 12.8-5.12 15.36-2.56 2.56-5.12 5.12-12.8 7.68-7.68 2.56-15.36 5.12-25.6 7.68-10.24 2.56-23.04 5.12-35.84 7.68-10.24 2.56-23.04 2.56-33.28 5.12 0-2.56 0-5.12-2.56-5.12-2.56-10.24-7.68-17.92-12.8-25.6h5.12c10.24-2.56 25.6-2.56 38.4-5.12 12.8-2.56 23.04-5.12 33.28-5.12 7.68-2.56 12.8-2.56 17.92-5.12v-30.72c0-5.12-2.56-10.24-2.56-10.24s0-2.56-2.56-2.56l-15.36-7.68-23.04-7.68c-10.24-2.56-20.48-5.12-28.16-10.24-12.8-5.12-23.04-10.24-30.72-17.92-7.68-7.68-15.36-15.36-20.48-25.6-2.56-7.68-5.12-17.92-7.68-25.6 0-7.68 0-15.36 2.56-23.04 0-5.12 2.56-12.8 5.12-17.92 2.56-5.12 7.68-12.8 12.8-17.92 2.56-2.56 7.68-5.12 10.24-10.24 2.56 0 2.56-2.56 2.56-2.56 2.56-2.56 2.56-5.12 2.56-7.68 0-2.56 2.56-7.68 2.56-10.24l5.12-20.48 12.8-5.12-2.56-10.24v-20.48c0-10.24 0-20.48-2.56-30.72 0-7.68-2.56-17.92-7.68-28.16 0-7.68-5.12-15.36-10.24-23.04l-7.68-7.68c-2.56-2.56-7.68-5.12-12.8-7.68-5.12-2.56-10.24-5.12-17.92-5.12-5.12-2.56-10.24-2.56-17.92-2.56-5.12 0-10.24 0-15.36 2.56-5.12 0-10.24 2.56-15.36 5.12l-15.36 7.68c0-2.56-2.56-5.12-2.56-10.24-2.56-7.68-5.12-15.36-10.24-23.04 5.12-2.56 10.24-5.12 12.8-7.68l23.04-7.68c7.68 0 15.36-2.56 23.04-2.56 10.24 0 17.92 0 25.6 2.56 10.24 5.12 17.92 7.68 25.6 10.24 7.68 2.56 12.8 7.68 17.92 10.24 5.12 5.12 10.24 7.68 12.8 12.8 7.68 10.24 12.8 20.48 17.92 33.28 5.12 12.8 7.68 23.04 7.68 33.28 2.56 12.8 2.56 25.6 2.56 38.4 2.56 0 5.12 2.56 5.12 5.12s2.56 5.12 2.56 7.68v12.8c0 7.68-2.56 12.8-5.12 15.36-2.56 5.12-5.12 7.68-7.68 10.24-2.56 2.56-5.12 5.12-7.68 5.12 0 5.12-2.56 10.24-5.12 15.36-2.56 5.12-2.56 7.68-5.12 12.8-2.56 5.12-5.12 7.68-7.68 10.24-2.56 2.56-5.12 5.12-7.68 5.12-2.56 2.56-5.12 2.56-7.68 5.12-2.56 2.56-2.56 5.12-5.12 7.68 5.12 2.56 2.56 5.12 2.56 10.24v15.36c0 5.12 2.56 10.24 2.56 15.36 2.56 5.12 5.12 10.24 10.24 12.8 5.12 5.12 12.8 7.68 20.48 12.8 7.68 2.56 15.36 5.12 25.6 7.68 10.24 2.56 17.92 5.12 25.6 7.68 7.68 2.56 15.36 7.68 23.04 12.8 7.68 5.12 10.24 12.8 15.36 20.48 2.56 5.12 2.56 10.24 2.56 17.92v23.04c2.56 2.56 2.56 10.24 0 17.92zM681.06 413.51c-2.56 10.24-2.56 17.92-5.12 23.04-2.56 5.12-5.12 10.24-10.24 12.8-5.12 2.56-7.68 5.12-12.8 7.68-2.56 7.68-2.56 12.8-5.12 20.48-2.56 5.12-5.12 10.24-7.68 17.92-2.56 5.12-5.12 10.24-10.24 12.8-5.12 2.56-7.68 7.68-10.24 7.68-2.56 2.56-7.68 5.12-10.24 7.68-2.56 2.56-5.12 5.12-7.68 10.24-2.56 2.56-2.56 7.68-5.12 12.8-2.56 7.68-2.56 12.8-2.56 20.48s2.56 12.8 5.12 20.48 7.68 12.8 15.36 20.48c7.68 5.12 15.36 12.8 28.16 17.92 10.24 5.12 23.04 7.68 35.84 12.8 12.8 2.56 25.6 7.68 38.4 12.8 12.8 5.12 23.04 10.24 33.28 17.92 10.24 7.68 15.36 15.36 20.48 28.16 2.56 7.68 5.12 15.36 5.12 25.6 0 10.24 2.56 20.48 2.56 30.72 0 10.24 0 20.48-2.56 30.72-2.56 10.24-5.12 15.36-7.68 20.48-2.56 2.56-7.68 7.68-17.92 10.24-10.24 2.56-23.04 7.68-38.4 10.24-15.36 2.56-30.72 5.12-51.2 10.24-17.92 2.56-38.4 5.12-56.32 7.68-17.92 2.56-35.84 5.12-53.76 5.12-17.92 2.56-33.28 2.56-46.08 2.56-20.48 0-43.52-2.56-69.12-5.12s-51.2-5.12-76.8-10.24c-25.6-5.12-46.08-7.68-66.56-12.8-17.92-5.12-30.72-7.68-33.28-10.24-5.12-2.56-7.68-15.36-10.24-33.28-2.56-17.92-2.56-40.96 2.56-69.12 2.56-15.36 10.24-28.16 20.48-38.4 10.24-12.8 20.48-17.92 35.84-23.04 15.36-5.12 28.16-10.24 43.52-12.8 15.36-5.12 28.16-10.24 40.96-17.92 10.24-5.12 15.36-10.24 20.48-17.92 5.12-5.12 7.68-10.24 10.24-15.36 2.56-5.12 2.56-10.24 2.56-15.36v-17.92c0-10.24-5.12-17.92-10.24-25.6-5.12-5.12-12.8-12.8-20.48-17.92-2.56-2.56-7.68-7.68-10.24-12.8-2.56-5.12-5.12-10.24-7.68-17.92-2.56-7.68-5.12-12.8-7.68-20.48-2.56 0-5.12-2.56-10.24-5.12-2.56-2.56-5.12-5.12-7.68-10.24-2.56-5.12-5.12-10.24-7.68-17.92-2.56-7.68-2.56-15.36-2.56-20.48 0-5.12 2.56-10.24 2.56-15.36 2.56-5.12 5.12-10.24 7.68-12.8 0-17.92 0-33.28 2.56-51.2 2.56-15.36 5.12-28.16 10.24-46.08 5.12-15.36 10.24-30.72 20.48-43.52 7.68-12.8 17.92-23.04 28.16-30.72 10.24-7.68 20.48-12.8 30.72-17.92 10.24-5.12 20.48-7.68 33.28-10.24 10.24-2.56 20.48-2.56 30.72-2.56 12.8 0 25.6 2.56 35.84 5.12 12.8 2.56 23.04 7.68 33.28 12.8 10.24 5.12 20.48 10.24 28.16 15.36 7.68 5.12 15.36 12.8 17.92 17.92 10.24 15.36 20.48 30.72 25.6 46.08 10.24 20.48 15.36 35.84 17.92 51.2 2.56 17.92 2.56 35.84 2.56 53.76l7.68 7.68c2.56 2.56 2.56 7.68 5.12 12.8v17.92z m-35.84-10.25l-12.8-7.68V375.1c0-15.36 0-30.72-2.56-46.08-2.56-12.8-5.12-28.16-10.24-43.52-5.12-12.8-10.24-25.6-20.48-35.84l-12.8-12.8c-5.12-5.12-12.8-7.68-20.48-12.8-7.68-5.12-17.92-7.68-28.16-10.24-7.68-2.56-17.92-2.56-28.16-2.56-7.68 0-17.92 0-25.6 2.56s-15.36 2.56-25.6 7.68c-7.68 2.56-15.36 7.68-23.04 15.36-7.68 5.12-15.36 12.8-20.48 23.04-7.68 10.24-12.8 20.48-15.36 33.28-5.12 15.36-7.68 28.16-7.68 40.96-2.56 15.36-2.56 30.72-2.56 46.08v12.8l-5.12 2.56c0 2.56-2.56 2.56-2.56 5.12s-2.56 5.12-2.56 7.68v7.68l2.56 5.12 2.56 2.56 15.36 5.12 5.12 17.92c2.56 7.68 5.12 12.8 5.12 17.92 2.56 5.12 5.12 10.24 5.12 12.8 0 0 0 2.56 2.56 2.56 7.68 5.12 15.36 12.8 20.48 17.92 7.68 7.68 17.92 23.04 20.48 46.08v20.48c0 10.24-2.56 20.48-5.12 28.16-2.56 10.24-10.24 17.92-17.92 28.16-7.68 7.68-15.36 15.36-28.16 23.04-15.36 10.24-30.72 15.36-48.64 20.48-15.36 5.12-28.16 7.68-40.96 12.8-10.24 7.68-17.92 12.8-25.6 17.92-2.56 0-5.12 5.12-7.68 15.36-5.12 25.6-5.12 46.08-2.56 58.88 0 5.12 0 7.68 2.56 10.24 2.56 0 10.24 2.56 17.92 5.12 17.92 5.12 38.4 7.68 64 12.8 23.04 2.56 48.64 7.68 76.8 10.24 25.6 2.56 48.64 5.12 64 5.12 12.8 0 28.16 0 43.52-2.56 17.92-2.56 35.84-2.56 53.76-5.12 15.36-2.56 35.84-5.12 56.32-7.68 17.92-2.56 33.28-5.12 48.64-7.68 12.8-2.56 25.6-5.12 33.28-10.24h2.56v-2.56c0-7.68 2.56-15.36 2.56-23.04s0-17.92-2.56-28.16c0-7.68-2.56-15.36-2.56-17.92-2.56-5.12-5.12-7.68-7.68-10.24-7.68-5.12-15.36-10.24-23.04-12.8-10.24-5.12-23.04-7.68-33.28-10.24-15.36-2.56-28.16-7.68-40.96-12.8-15.36-7.68-28.16-15.36-38.4-23.04-10.24-10.24-17.92-20.48-23.04-30.72-5.12-10.24-7.68-20.48-7.68-30.72 0-10.24 0-20.48 2.56-28.16s2.56-15.36 7.68-20.48c2.56-7.68 7.68-12.8 12.8-20.48 5.12-5.12 7.68-7.68 12.8-10.24 2.56-2.56 5.12-5.12 7.68-5.12l2.56-2.56c2.56-5.12 5.12-10.24 5.12-12.8 2.56-5.12 2.56-10.24 5.12-17.92l5.12-20.48 17.92-5.12 2.56-2.56s2.56-2.56 2.56-12.8c-5.12-12.79-5.12-15.36-7.68-15.36zM335.46 272.71c-2.56-2.56-7.68-5.12-10.24-5.12-5.12-2.56-12.8-5.12-17.92-7.68-5.12 0-10.24-2.56-17.92-2.56-5.12 0-10.24 0-15.36 2.56-5.12 0-10.24 2.56-15.36 5.12-5.12 0-10.24 2.56-15.36 7.68-5.12 2.56-7.68 7.68-12.8 12.8-2.56 5.12-7.68 12.8-7.68 20.48-5.12 10.24-5.12 17.92-7.68 25.6-2.56 10.24-2.56 20.48-2.56 30.72v12.8l-7.68 10.24v5.12l12.8 2.56 5.12 17.92c2.56 5.12 2.56 7.68 5.12 12.8 0 2.56 2.56 5.12 2.56 7.68 5.12 5.12 10.24 7.68 12.8 12.8 7.68 7.68 15.36 20.48 17.92 38.4v15.36c0 7.68-2.56 15.36-5.12 23.04s-7.68 15.36-15.36 23.04c-5.12 5.12-12.8 10.24-20.48 17.92-10.24 7.68-23.04 12.8-38.4 15.36-10.24 2.56-20.48 5.12-28.16 7.68-7.68 2.56-12.8 5.12-15.36 7.68 0 0 0 2.56-2.56 5.12-2.56 20.48-2.56 33.28-2.56 38.4h5.12c12.8 2.56 28.16 5.12 43.52 7.68 15.36 2.56 30.72 5.12 46.08 5.12-7.68 10.24-12.8 20.48-15.36 33.28-12.8-2.56-25.6-2.56-35.84-5.12-17.92-2.56-33.28-5.12-46.08-7.68-12.8-2.56-20.48-5.12-23.04-7.68 0 2.56-2.56-5.12-5.12-17.92s0-28.16 2.56-48.64c2.56-12.8 7.68-20.48 12.8-25.6 7.68-5.12 15.36-10.24 25.6-12.8 10.24-2.56 20.48-7.68 30.72-10.24 10.24-2.56 20.48-7.68 28.16-12.8 7.68-5.12 12.8-7.68 15.36-12.8 2.56-2.56 5.12-7.68 7.68-10.24 5.12-2.56 5.12-7.68 5.12-10.24v-12.8c0-7.68-2.56-12.8-7.68-17.92-5.12-5.12-7.68-7.68-15.36-12.8-2.56-2.56-5.12-5.12-7.68-10.24-2.56-5.12-2.56-7.68-5.12-12.8-2.56-5.12-2.56-10.24-5.12-15.36-2.56 0-5.12-2.56-7.68-2.56-2.56-2.56-5.12-2.56-5.12-7.68-2.56-2.56-5.12-7.68-5.12-12.8-2.56-5.12-2.56-10.24-2.56-15.36 0-5.12 2.56-7.68 2.56-10.24 0-2.56 2.56-7.68 5.12-10.24 0-12.8 0-23.04 2.56-35.84 0-10.24 2.56-20.48 7.68-30.72 2.56-10.24 7.68-20.48 15.36-30.72 5.12-7.68 12.8-15.36 20.48-20.48 7.68-2.56 15.36-7.68 23.04-10.24 7.68-2.56 15.36-5.12 23.04-5.12s15.36-2.56 23.04-2.56c10.24 0 17.92 0 25.6 2.56 5.12 2.56 12.8 5.12 20.48 7.68 2.56 2.56 5.12 2.56 7.68 5.12-2.56 10.24-7.68 20.48-10.24 30.72v2.56z m0 0" fill="#1296db" p-id="11486"></path></svg>