<?xml version="1.0" standalone="no"?><!DOCTYPE svg PUBLIC "-//W3C//DTD SVG 1.1//EN" "http://www.w3.org/Graphics/SVG/1.1/DTD/svg11.dtd"><svg t="1595468762494" class="icon" viewBox="0 0 1024 1024" version="1.1" xmlns="http://www.w3.org/2000/svg" p-id="2692" xmlns:xlink="http://www.w3.org/1999/xlink" width="600" height="600"><defs><style type="text/css"></style></defs><path d="M512.038 927.033c-55.901 0-110.145-10.932-161.159-32.547-49.275-20.87-93.582-50.683-131.594-88.695s-67.909-82.319-88.695-131.594C108.891 623.1 97.96 568.856 97.96 512.956c0-55.9 10.932-110.145 32.547-161.159 20.87-49.275 50.683-93.582 88.695-131.594s82.319-67.909 131.594-88.695c51.097-21.698 105.341-32.629 161.242-32.629s110.145 10.932 161.159 32.547c49.275 20.87 93.582 50.683 131.594 88.695 38.012 38.012 67.909 82.319 88.695 131.594 21.698 51.097 32.629 105.341 32.629 161.242 0 55.901-10.932 110.145-32.547 161.159-20.87 49.275-50.683 93.582-88.695 131.594-38.012 38.012-82.319 67.909-131.594 88.695-51.097 21.697-105.341 32.628-161.241 32.628z m0-761.903c-46.956 0-92.505 9.193-135.404 27.329-41.408 17.557-78.592 42.567-110.559 74.534-31.967 31.967-57.06 69.151-74.534 110.559-18.137 42.898-27.329 88.447-27.329 135.403 0 46.956 9.193 92.505 27.329 135.404 17.557 41.408 42.567 78.592 74.534 110.559 31.967 31.967 69.151 57.06 110.559 74.534 42.898 18.137 88.447 27.329 135.404 27.329 46.956 0 92.505-9.193 135.403-27.329 41.408-17.557 78.592-42.567 110.559-74.534s57.06-69.151 74.534-110.559c18.137-42.898 27.329-88.447 27.329-135.404 0-46.956-9.193-92.505-27.329-135.403-17.557-41.408-42.567-78.592-74.534-110.559s-69.151-57.06-110.559-74.534c-42.898-18.136-88.447-27.329-135.403-27.329z" p-id="2693"></path><path d="M516.013 642.065c-18.302 0-33.126-14.824-33.126-33.126v-28.985c0-15.818 2.319-35.197 19.296-58.385 6.874-9.441 16.315-18.137 27.164-28.157 23.023-21.284 49.11-45.383 46.46-72.298-1.988-20.455-11.263-35.528-27.412-44.803-18.385-10.6-43.478-11.843-62.443-3.147-29.317 13.416-38.675 48.613-38.758 49.027l0.083-0.248-64.431-15.404c0.414-1.739 4.389-17.723 15.072-36.522 14.741-26.004 35.611-45.714 60.373-57.06 18.634-8.53 39.834-12.588 61.449-11.677 21.946 0.911 43.23 7.039 61.615 17.557 34.865 19.959 56.232 53.996 60.373 95.818 2.65 26.998-5.052 53.582-22.774 79.172-13.582 19.462-30.807 35.445-44.638 48.199-7.619 7.039-15.487 14.327-18.633 18.634-6.46 8.861-6.46 13.002-6.46 19.296v28.985c-0.084 18.3-14.908 33.124-33.21 33.124z m-33.209 56.646c0 18.295 14.831 33.126 33.126 33.126 18.295 0 33.126-14.831 33.126-33.126s-14.831-33.126-33.126-33.126c-18.295 0-33.126 14.831-33.126 33.126z" p-id="2694"></path></svg>