<?xml version="1.0" standalone="no"?><!DOCTYPE svg PUBLIC "-//W3C//DTD SVG 1.1//EN" "http://www.w3.org/Graphics/SVG/1.1/DTD/svg11.dtd"><svg t="1598279419763" class="icon" viewBox="0 0 1024 1024" version="1.1" xmlns="http://www.w3.org/2000/svg" p-id="2801" xmlns:xlink="http://www.w3.org/1999/xlink" width="600" height="600"><defs><style type="text/css"></style></defs><path d="M864.158476 467.334095L965.485714 525.653333l-165.692952 286.866286-99.328 55.198476-1.950476-113.615238 165.64419-286.817524z m58.514286-101.278476L1024 424.472381l-39.009524 67.535238-101.278476-58.416762 39.009524-67.535238z m-373.564952 364.251429a36.571429 36.571429 0 1 1 0 73.142857H219.867429a36.571429 36.571429 0 1 1 0-73.142857h329.240381z m-329.240381-219.428572h439.003428a36.571429 36.571429 0 1 1 0 73.142857H219.867429a36.571429 36.571429 0 1 1 0-73.142857z m0-219.428571h439.003428a36.571429 36.571429 0 1 1 0 73.142857H219.867429a36.571429 36.571429 0 1 1 0-73.142857zM256.097524 0h73.142857v182.857143h-73.142857V0z m109.714286 73.142857h146.383238V146.285714H365.860571V73.142857zM548.815238 0h73.142857v182.857143h-73.142857V0z m256.097524 914.285714v-75.434666l73.142857-127.171048v202.605714a109.763048 109.763048 0 0 1-109.714286 109.714286H109.714286A109.763048 109.763048 0 0 1 0 914.285714v-731.428571A109.763048 109.763048 0 0 1 109.714286 73.142857h109.811809V146.285714H109.714286a36.571429 36.571429 0 0 0-36.571429 36.571429v731.428571c0 20.23619 16.335238 36.571429 36.571429 36.571429h658.480762a36.571429 36.571429 0 0 0 36.571428-36.571429z m73.142857-731.428571v228.205714l-73.142857 127.268572V182.857143a36.571429 36.571429 0 0 0-36.571429-36.571429h-109.763047V73.142857h109.714285a109.763048 109.763048 0 0 1 109.763048 109.714286z" fill="#409EFF" p-id="2802"></path></svg>